<svg width="28" height="29" viewBox="0 0 28 29" fill="none" xmlns="http://www.w3.org/2000/svg">
<g id="devicon:google" clip-path="url(#clip0_2_562)">
<path id="Vector" d="M9.7539 1.42093C6.95626 2.39146 4.54359 4.23355 2.87025 6.67663C1.19692 9.1197 0.351129 12.035 0.457115 14.9943C0.563102 17.9536 1.61528 20.8009 3.4591 23.118C5.30292 25.4351 7.84119 27.0999 10.7011 27.8678C13.0197 28.4661 15.4489 28.4924 17.7798 27.9444C19.8915 27.4701 21.8437 26.4555 23.4455 25C25.1125 23.4389 26.3225 21.4529 26.9455 19.2556C27.6225 16.8661 27.743 14.3533 27.2976 11.91H14.2776V17.3109H21.818C21.6673 18.1723 21.3443 18.9945 20.8685 19.7282C20.3926 20.4619 19.7736 21.092 19.0486 21.5809C18.1278 22.19 17.0899 22.5998 16.0014 22.7841C14.9097 22.9871 13.79 22.9871 12.6983 22.7841C11.5918 22.5553 10.5451 22.0986 9.62483 21.4431C8.14641 20.3966 7.03631 18.9098 6.45296 17.195C5.85974 15.448 5.85974 13.5541 6.45296 11.8072C6.8682 10.5827 7.55466 9.46773 8.46108 8.54562C9.49838 7.47101 10.8116 6.70286 12.2567 6.32548C13.7019 5.94809 15.223 5.97603 16.6533 6.40625C17.7706 6.74923 18.7923 7.34848 19.637 8.15625C20.4872 7.31041 21.336 6.46239 22.1833 5.61218C22.6208 5.155 23.0976 4.71968 23.5286 4.25156C22.2392 3.05166 20.7257 2.118 19.0748 1.50406C16.0686 0.412474 12.7792 0.383138 9.7539 1.42093Z" fill="white"/>
<path id="Vector_2" d="M9.75383 1.42094C12.7788 0.382443 16.0682 0.411006 19.0748 1.50188C20.7259 2.11999 22.2387 3.05815 23.5263 4.26251C23.0888 4.73063 22.6273 5.16813 22.181 5.62313C21.3323 6.47042 20.4842 7.3148 19.6369 8.15626C18.7922 7.34849 17.7705 6.74924 16.6532 6.40626C15.2234 5.97453 13.7023 5.94497 12.2568 6.32082C10.8113 6.69666 9.49726 7.46339 8.45883 8.53688C7.5524 9.45899 6.86595 10.5739 6.4507 11.7984L1.91602 8.28751C3.53916 5.06873 6.34953 2.60662 9.75383 1.42094Z" fill="#E33629"/>
<path id="Vector_3" d="M0.71265 11.7656C0.956384 10.5577 1.36103 9.38788 1.91578 8.28751L6.45046 11.8072C5.85724 13.5541 5.85724 15.4481 6.45046 17.195C4.93963 18.3617 3.42807 19.5342 1.91578 20.7125C0.527042 17.9482 0.103503 14.7986 0.71265 11.7656Z" fill="#F8BD00"/>
<path id="Vector_4" d="M14.2773 11.9078H27.2973C27.7427 14.3511 27.6222 16.864 26.9452 19.2534C26.3222 21.4507 25.1122 23.4367 23.4452 24.9978C21.9817 23.8559 20.5117 22.7228 19.0483 21.5809C19.7738 21.0915 20.3931 20.4607 20.869 19.7262C21.3448 18.9917 21.6675 18.1687 21.8177 17.3066H14.2773C14.2752 15.5084 14.2773 13.7081 14.2773 11.9078Z" fill="#587DBD"/>
<path id="Vector_5" d="M1.91406 20.7125C3.42635 19.5458 4.93792 18.3733 6.44875 17.195C7.03327 18.9104 8.14495 20.3973 9.625 21.4431C10.5481 22.0956 11.5971 22.5485 12.705 22.7731C13.7967 22.9761 14.9164 22.9761 16.0081 22.7731C17.0966 22.5889 18.1346 22.1791 19.0553 21.57C20.5188 22.7119 21.9888 23.845 23.4522 24.9869C21.8507 26.4431 19.8984 27.4585 17.7866 27.9334C15.4556 28.4814 13.0264 28.4551 10.7078 27.8569C8.87404 27.3672 7.16117 26.5041 5.67656 25.3216C4.1052 24.074 2.82178 22.5018 1.91406 20.7125Z" fill="#319F43"/>
</g>
<defs>
<clipPath id="clip0_2_562">
<rect width="28" height="28" fill="white" transform="translate(0 0.5)"/>
</clipPath>
</defs>
</svg>
